<?xml version="1.0" standalone="no"?>
<!DOCTYPE svg PUBLIC "-//W3C//DTD SVG 1.1//EN" "http://www.w3.org/Graphics/SVG/1.1/DTD/svg11.dtd">
<!--Generator: Xara Designer (www.xara.com), SVG filter version: 6.0.0.4-->
<svg stroke-width="0.501" stroke-linejoin="bevel" fill-rule="evenodd" xmlns:xlink="http://www.w3.org/1999/xlink" xmlns="http://www.w3.org/2000/svg" version="1.1" overflow="visible" viewBox="0 0 600 173.252">
 <defs>
	</defs>
 <g id="Document" fill="none" stroke="black" font-family="Times New Roman" font-size="16" transform="scale(1 -1)">
  <g id="Spread" transform="translate(0 -173.252)">
   <g id="Layer 1">
    <path d="M 61.414,6.536 L 11.2,32.219 L 11.2,138.6 L 61.414,164.281 L 61.414,130.491 L 61.414,130.515 C 54.735,138.901 46.018,140.113 38.777,135.56 C 28.838,129.271 21.839,112.327 25.339,91.088 C 27.963,75.237 33.817,64.919 39.902,56.516 C 45.976,48.119 51.88,41.948 56.998,33.175 C 58.182,31.139 59.783,30.016 61.414,29.844 L 61.414,6.536 Z M 61.414,55.255 L 57.488,60.572 C 54.381,64.572 51.345,68.251 48.619,72.017 C 43.475,79.137 39.796,86.115 38.114,96.279 C 36.324,107.064 39.633,113.805 43.702,116.37 C 47.865,119.009 53.035,117.514 56.073,108.806 C 57.235,105.455 59.295,103.67 61.413,103.45 L 61.414,55.255 Z" stroke="none" fill="#00437c" stroke-width="1.22" stroke-linejoin="miter" marker-start="none" marker-end="none" stroke-miterlimit="79.8403193612775"/>
    <path d="M 68.898,32.115 L 68.898,46.515 C 70.624,46.608 72.322,47.386 73.574,48.828 C 78.872,54.899 84.978,59.17 91.256,64.982 C 97.544,70.791 103.596,77.937 106.311,88.903 C 109.93,103.595 102.699,115.328 92.415,119.677 C 84.887,122.845 75.82,121.98 68.897,116.091 L 68.898,116.063 L 68.898,138.496 L 119.108,138.496 L 119.108,32.115 L 68.898,32.115 Z M 68.898,64.003 L 68.898,97.453 C 71.127,97.569 73.309,98.808 74.534,101.163 C 77.674,107.196 83.024,108.227 87.327,106.401 C 91.535,104.626 94.955,99.965 93.104,92.496 C 91.368,85.462 87.559,80.635 82.24,75.707 C 79.427,73.101 76.276,70.557 73.076,67.785 L 68.898,64.003 Z" stroke="none" fill="#0095a6" stroke-width="1.22" stroke-linejoin="miter" marker-start="none" marker-end="none" stroke-miterlimit="79.8403193612775"/>
    <path d="M 252.774,34.563 L 252.774,46.795 C 257.319,43.587 262.766,41.983 269.116,41.983 C 278.341,41.983 282.953,46.394 282.953,55.217 L 282.953,59.629 C 279.878,54.616 275.065,52.109 268.515,52.109 C 262.833,52.109 257.971,54.198 253.927,58.376 C 249.883,62.553 247.861,68.619 247.861,76.573 C 247.861,83.926 249.782,89.992 253.626,94.771 C 257.469,99.55 262.533,101.94 268.816,101.94 C 275.166,101.94 279.878,99.299 282.953,94.019 L 282.953,101.338 L 294.984,101.338 L 294.984,55.117 C 294.984,47.096 292.661,41.064 288.016,37.02 C 283.37,32.976 277.472,30.954 270.32,30.954 C 263.635,30.954 257.787,32.157 252.774,34.563 Z M 203.752,54.315 C 200.912,57.122 199.491,60.665 199.491,64.943 C 199.491,69.755 201.296,73.532 204.905,76.273 C 208.515,79.013 213.729,80.383 220.546,80.383 L 227.966,80.383 L 227.966,83.491 C 227.966,86.299 227.231,88.438 225.76,89.908 C 224.289,91.379 221.783,92.114 218.24,92.114 C 212.826,92.114 207.846,90.61 203.301,87.602 L 203.301,98.731 C 207.111,101.071 212.592,102.24 219.744,102.24 C 233.514,102.24 240.398,95.824 240.398,82.99 L 240.398,50.505 L 228.467,50.505 L 228.467,56.621 C 226.128,52.276 221.716,50.104 215.232,50.104 C 210.42,50.104 206.593,51.508 203.752,54.315 Z M 306.504,54.315 C 303.664,57.122 302.243,60.665 302.243,64.943 C 302.243,69.755 304.048,73.532 307.657,76.273 C 311.267,79.013 316.481,80.383 323.298,80.383 L 330.718,80.383 L 330.718,83.491 C 330.718,86.299 329.983,88.438 328.512,89.908 C 327.041,91.379 324.535,92.114 320.992,92.114 C 315.578,92.114 310.598,90.61 306.053,87.602 L 306.053,98.731 C 309.863,101.071 315.344,102.24 322.496,102.24 C 336.266,102.24 343.15,95.824 343.15,82.99 L 343.15,50.505 L 331.219,50.505 L 331.219,56.621 C 328.88,52.276 324.468,50.104 317.984,50.104 C 313.172,50.104 309.345,51.508 306.504,54.315 Z M 148.003,50.505 L 148.003,121.391 L 160.034,121.391 L 160.034,92.716 C 162.775,98.865 167.955,101.94 175.575,101.94 C 180.521,101.94 184.515,100.386 187.556,97.277 C 190.598,94.169 192.118,89.674 192.118,83.792 L 192.118,50.505 L 180.087,50.505 L 180.087,81.687 C 180.087,84.895 179.268,87.402 177.63,89.206 C 175.993,91.011 173.871,91.913 171.264,91.913 C 168.39,91.913 165.799,90.811 163.493,88.605 C 161.187,86.399 160.034,82.79 160.034,77.776 L 160.034,50.505 L 148.003,50.505 Z M 352.919,50.505 L 352.919,101.338 L 364.95,101.338 L 364.95,92.615 C 367.825,98.832 373.038,101.94 380.591,101.94 C 385.671,101.94 389.682,100.402 392.623,97.328 C 395.564,94.253 397.034,89.908 397.034,84.293 L 397.034,50.505 L 385.003,50.505 L 385.003,81.787 C 385.003,85.129 384.201,87.652 382.596,89.357 C 380.992,91.061 378.82,91.913 376.079,91.913 C 372.938,91.913 370.298,90.694 368.159,88.254 C 366.02,85.814 364.95,82.322 364.95,77.776 L 364.95,50.505 L 352.919,50.505 Z M 225.71,61.384 C 227.214,62.954 227.966,65.01 227.966,67.55 L 227.966,72.362 L 221.75,72.362 C 218.608,72.362 216.202,71.711 214.531,70.407 C 212.86,69.104 212.024,67.449 212.024,65.444 C 212.024,61.166 214.497,59.027 219.443,59.027 C 222.117,59.027 224.206,59.813 225.71,61.384 Z M 328.462,61.384 C 329.966,62.954 330.718,65.01 330.718,67.55 L 330.718,72.362 L 324.502,72.362 C 321.36,72.362 318.954,71.711 317.283,70.407 C 315.612,69.104 314.776,67.449 314.776,65.444 C 314.776,61.166 317.249,59.027 322.195,59.027 C 324.869,59.027 326.958,59.813 328.462,61.384 Z M 279.644,65.795 C 281.85,68.368 282.953,71.727 282.953,75.871 C 282.953,81.286 281.883,85.263 279.744,87.803 C 277.605,90.343 274.898,91.613 271.623,91.613 C 268.147,91.613 265.407,90.259 263.401,87.552 C 261.396,84.845 260.394,81.185 260.394,76.573 C 260.394,71.828 261.43,68.201 263.502,65.695 C 265.574,63.188 268.214,61.935 271.422,61.935 C 274.698,61.935 277.438,63.222 279.644,65.795 Z" stroke="none" fill="#00437c" stroke-width="2.507" fill-rule="nonzero" stroke-linejoin="round" stroke-linecap="round" marker-start="none" marker-end="none" stroke-miterlimit="79.8403193612775"/>
    <path d="M 411.476,57.022 C 406.63,61.968 404.207,68.218 404.207,75.771 C 404.274,83.191 406.697,89.44 411.476,94.52 C 416.255,99.6 422.789,102.14 431.077,102.14 C 436.023,102.14 440.234,101.204 443.71,99.333 L 443.71,88.705 C 440.368,90.844 436.558,91.913 432.28,91.913 C 427.601,91.913 423.825,90.443 420.951,87.502 C 418.076,84.561 416.606,80.651 416.539,75.771 C 416.673,70.959 418.127,67.082 420.9,64.141 C 423.674,61.2 427.434,59.729 432.18,59.729 C 436.324,59.729 440.168,60.866 443.71,63.138 L 443.71,52.711 C 440.168,50.639 435.756,49.603 430.475,49.603 C 422.655,49.603 416.322,52.076 411.476,57.022 Z M 536.639,57.223 C 531.96,62.035 529.621,68.252 529.621,75.871 C 529.621,83.959 531.827,90.309 536.238,94.921 C 540.65,99.533 546.164,101.839 552.781,101.839 C 559.399,101.839 564.646,99.834 568.523,95.824 C 572.399,91.813 574.338,85.965 574.338,78.278 C 574.338,76.406 574.104,74 573.636,71.059 L 541.752,71.059 C 542.621,67.383 544.443,64.575 547.217,62.637 C 549.991,60.698 553.45,59.729 557.594,59.729 C 562.941,59.729 567.453,61.066 571.129,63.74 L 571.129,53.312 C 567.587,51.107 562.473,50.004 555.789,50.004 C 547.701,50.004 541.318,52.41 536.639,57.223 Z M 453.165,54.315 C 450.325,57.122 448.904,60.665 448.904,64.943 C 448.904,69.755 450.709,73.532 454.318,76.273 C 457.928,79.013 463.142,80.383 469.959,80.383 L 477.379,80.383 L 477.379,83.491 C 477.379,86.299 476.644,88.438 475.173,89.908 C 473.702,91.379 471.196,92.114 467.653,92.114 C 462.239,92.114 457.259,90.61 452.714,87.602 L 452.714,98.731 C 456.524,101.071 462.005,102.24 469.157,102.24 C 482.927,102.24 489.811,95.824 489.811,82.99 L 489.811,50.505 L 477.88,50.505 L 477.88,56.621 C 475.541,52.276 471.129,50.104 464.645,50.104 C 459.833,50.104 456.006,51.508 453.165,54.315 Z M 499.48,50.505 L 499.58,101.338 L 511.611,101.338 L 511.611,92.314 C 513.951,98.598 518.229,101.739 524.445,101.739 C 525.849,101.739 526.985,101.639 527.854,101.438 L 527.854,89.808 C 526.316,90.476 524.612,90.811 522.74,90.811 C 519.465,90.811 516.792,89.474 514.719,86.8 C 512.647,84.126 511.611,80.784 511.611,76.774 L 511.611,50.505 L 499.48,50.505 Z M 475.123,61.384 C 476.627,62.954 477.379,65.01 477.379,67.55 L 477.379,72.362 L 471.163,72.362 C 468.021,72.362 465.615,71.711 463.944,70.407 C 462.273,69.104 461.437,67.449 461.437,65.444 C 461.437,61.166 463.91,59.027 468.856,59.027 C 471.53,59.027 473.619,59.813 475.123,61.384 Z M 562.908,80.082 L 562.908,81.586 C 562.774,84.862 561.889,87.485 560.251,89.457 C 558.613,91.429 556.224,92.415 553.082,92.415 C 550.208,92.415 547.718,91.362 545.613,89.256 C 543.507,87.151 542.154,84.093 541.552,80.082 L 562.908,80.082 Z" stroke="none" fill="#0095a6" stroke-width="2.507" fill-rule="nonzero" stroke-linejoin="round" stroke-linecap="round" marker-start="none" marker-end="none" stroke-miterlimit="79.8403193612775"/>
    <path d="M 579.809,94.843 L 579.809,101.53 L 577.179,101.53 L 577.179,102.776 L 583.911,102.776 L 583.911,101.53 L 581.282,101.53 L 581.282,94.843 L 579.809,94.843 Z M 584.697,94.843 L 584.697,102.776 L 585.91,102.776 L 589.061,97.518 L 592.155,102.776 L 593.367,102.776 L 593.379,94.843 L 591.985,94.843 L 591.973,100.102 L 589.367,95.75 L 588.709,95.75 L 586.103,100.034 L 586.103,94.843 L 584.697,94.843 Z" stroke="none" fill="#0095a6" stroke-width="0.286" fill-rule="nonzero" stroke-linejoin="round" stroke-linecap="round" marker-start="none" marker-end="none" stroke-miterlimit="79.8403193612775"/>
   </g>
  </g>
 </g>
</svg>
